<?xml version="1.0" encoding="UTF-8" standalone="no"?>
<!-- Created with Inkscape (http://www.inkscape.org/) -->

<svg
   width="180.67746mm"
   height="133.71979mm"
   viewBox="0 0 180.67746 133.71979"
   version="1.1"
   id="svg1"
   sodipodi:docname="FirstImage_BootCampProject.svg"
   inkscape:version="1.3.2 (091e20e, 2023-11-25, custom)"
   inkscape:export-filename="FirstImage_BootCampProject.svg"
   inkscape:export-xdpi="710.18146"
   inkscape:export-ydpi="710.18146"
   xmlns:inkscape="http://www.inkscape.org/namespaces/inkscape"
   xmlns:sodipodi="http://sodipodi.sourceforge.net/DTD/sodipodi-0.dtd"
   xmlns="http://www.w3.org/2000/svg"
   xmlns:svg="http://www.w3.org/2000/svg">
  <sodipodi:namedview
     id="namedview1"
     pagecolor="#ffffff"
     bordercolor="#000000"
     borderopacity="0.25"
     inkscape:showpageshadow="2"
     inkscape:pageopacity="0.0"
     inkscape:pagecheckerboard="0"
     inkscape:deskcolor="#d1d1d1"
     inkscape:document-units="mm"
     inkscape:zoom="0.73890575"
     inkscape:cx="329.54135"
     inkscape:cy="657.72935"
     inkscape:window-width="1705"
     inkscape:window-height="1360"
     inkscape:window-x="0"
     inkscape:window-y="0"
     inkscape:window-maximized="0"
     inkscape:current-layer="layer1" />
  <defs
     id="defs1" />
  <g
     inkscape:label="Layer 1"
     inkscape:groupmode="layer"
     id="layer1"
     transform="translate(-21.992711,-164.19822)">
    <rect
       style="fill:#4e4e4e;fill-opacity:1;stroke-width:0.211864"
       id="rect1"
       width="121.02919"
       height="59.082302"
       x="27.213661"
       y="219.49968" />
    <rect
       style="fill:#4e4e4e;fill-opacity:1;stroke-width:0.130353"
       id="rect1-8"
       width="130.33913"
       height="20.768326"
       x="22.221296"
       y="275.23096" />
    <ellipse
       style="fill:#0d00a6;fill-opacity:1;stroke-width:0.264583"
       id="path2"
       cx="89.69767"
       cy="237.40341"
       rx="11.637423"
       ry="6.8034163" />
    <rect
       style="fill:#4e4e4e;fill-opacity:1;stroke-width:0.264583"
       id="rect3"
       width="17.903727"
       height="31.510555"
       x="179.75342"
       y="266.40744" />
    <rect
       style="fill:#4e4e4e;fill-opacity:1;stroke-width:0.264583"
       id="rect4"
       width="29.004038"
       height="5.3711181"
       x="173.66614"
       y="263.18478" />
    <path
       style="opacity:0.258228;fill:#4e4e4e;fill-opacity:1;stroke-width:0.264583"
       id="path7"
       d="m 190.60194,261.51936 c 0.04,0.0987 -1.84173,-0.97066 -1.37912,-0.73216 0.7318,0.37728 1.38887,0.92587 2.17501,1.17052 0.42308,0.13167 -0.7093,-0.53219 -1.04673,-0.81939 -0.85163,-0.72483 -0.9882,-0.92398 -1.71717,-1.72618 -0.51858,-0.71049 -1.31164,-1.64939 -0.918,-2.61018 0.16026,-0.39115 0.49672,-0.64912 0.78816,-0.93041 1.20423,-0.91458 2.62302,-1.46594 4.01989,-2.01014 1.49265,-0.57647 0.95731,-1.5572 0.32035,-2.61306 -0.28199,-0.5887 -1.00956,-1.25235 -0.89855,-1.97617 0.0738,-0.48129 0.45215,-0.78372 0.74856,-1.12743 1.33049,-1.33111 3.00826,-2.21884 4.45449,-3.39803 0.84438,-0.81475 0.88429,-1.58234 0.55927,-2.6387 -0.22566,-0.71754 0.42558,-1.12909 0.85996,-1.59274 0.28608,-0.41836 0.15939,-0.18422 0.36203,-0.71187 0,0 -3.42046,-1.90418 -3.42046,-1.90418 v 0 c -0.16301,0.42244 -0.0599,0.2322 -0.29845,0.57638 -0.51712,0.56402 -1.22879,1.11479 -1.05267,1.96858 0.36298,0.96103 0.51152,1.43359 -0.28545,2.2553 -1.4212,1.22586 -3.05594,2.19142 -4.43536,3.47331 -0.43249,0.46414 -0.80833,0.72367 -0.96424,1.35174 -0.20009,0.80602 0.47502,1.51604 0.82635,2.16072 0.1756,0.27051 0.92582,1.2238 0.72585,1.57508 -0.12762,0.22416 -0.52498,0.36035 -0.7142,0.45065 -1.41771,0.59512 -2.86166,1.19928 -4.08666,2.1452 -0.37854,0.37214 -0.70287,0.61524 -0.91861,1.11689 -0.47531,1.10524 0.23822,2.13329 0.87107,2.98492 0.78223,0.88583 1.74974,1.99288 2.7442,2.6371 1.38668,0.89829 2.82059,1.72163 4.24086,2.56578 0.8236,0.48952 0.81047,0.46077 1.54991,0.77485 z" />
    <path
       style="opacity:0.258228;fill:#4e4e4e;fill-opacity:1;stroke-width:0.264583"
       id="path8"
       d="m 183.20126,263.67071 c -1.95781,-1.42456 -4.15313,-2.32291 -6.28475,-3.40212 -0.31706,-0.16053 -1.24919,-0.67771 -0.94358,-0.49631 0.80516,0.47792 1.62869,0.92422 2.44303,1.38633 -0.12105,-0.1481 -0.39475,-0.25563 -0.36317,-0.44428 0.0444,-0.26502 0.33184,-0.42797 0.53801,-0.6003 0.41739,-0.3489 0.86516,-0.6618 1.32313,-0.95541 1.51309,-0.97006 3.16015,-1.70792 4.77986,-2.4756 0.59127,-0.4007 1.28336,-0.6515 1.43825,-1.44822 0.22339,-1.14908 -1.10409,-2.19821 -1.74962,-2.88128 -0.39136,-0.41413 -0.78502,-0.82609 -1.17753,-1.23913 -1.75368,-2.13345 -3.00125,-4.60491 -3.37868,-7.36128 -0.19807,-1.44654 -0.0963,-2.07831 -0.0119,-3.48702 0.19687,-1.42205 0.48599,-2.89173 1.34204,-4.07436 0,0 -3.35349,-1.96875 -3.35349,-1.96875 v 0 c -0.0994,0.15533 -0.2139,0.302 -0.29828,0.46599 -0.6149,1.19509 -0.7549,2.59956 -0.93184,3.90504 -0.0567,1.40826 -0.14258,2.16899 0.0455,3.60558 0.36339,2.77593 1.54756,5.29395 3.22854,7.51166 0.70118,0.75418 1.42244,1.48992 2.10921,2.25725 0.25478,0.28467 0.85635,0.88096 0.84539,1.37223 -0.0155,0.69633 -0.71081,0.98735 -1.1612,1.33037 -1.60598,0.82053 -3.24181,1.60349 -4.79073,2.53001 -0.52068,0.31145 -2.09623,1.16951 -2.33601,1.9666 -0.069,0.22926 0.23738,0.41584 0.35607,0.62376 2.85236,1.65132 3.00386,1.82666 4.99569,2.83201 1.02982,0.51979 0.84176,0.40291 1.82843,0.91069 0.24014,0.12359 0.94776,0.5179 0.71615,0.37898 -0.956,-0.57343 -1.92672,-1.12196 -2.89008,-1.68293 z" />
    <rect
       style="opacity:1;fill:#4e4e4e;fill-opacity:1;stroke-width:0.265;stroke-dasharray:none"
       id="rect8"
       width="6.7097182"
       height="5.9501276"
       x="161.28644"
       y="164.19821" />
    <rect
       style="fill:#fcfcfc;fill-opacity:1;stroke-width:0.232558;stroke-dasharray:none"
       id="rect8-8"
       width="5.8444543"
       height="5.2608566"
       x="161.70769"
       y="164.54172" />
    <rect
       style="fill:#4e4e4e;fill-opacity:1;stroke-width:0.265;stroke-dasharray:none"
       id="rect8-3"
       width="6.7097182"
       height="5.9501276"
       x="161.24068"
       y="171.36606" />
    <rect
       style="fill:#fcfcfc;fill-opacity:1;stroke-width:0.232558;stroke-dasharray:none"
       id="rect8-8-6"
       width="5.8444543"
       height="5.2608566"
       x="161.66193"
       y="171.70956" />
    <rect
       style="fill:#4e4e4e;fill-opacity:1;stroke-width:0.265;stroke-dasharray:none"
       id="rect8-4"
       width="6.7097182"
       height="5.9501276"
       x="161.21153"
       y="178.6584" />
    <rect
       style="fill:#00009c;fill-opacity:1;stroke-width:0.207405;stroke-dasharray:none"
       id="rect8-4-6"
       width="19.81266"
       height="1.2343347"
       x="169.38158"
       y="182.86394" />
    <rect
       style="fill:#00009c;fill-opacity:1;stroke-width:0.207405;stroke-dasharray:none"
       id="rect8-4-6-5"
       width="19.81266"
       height="1.2343347"
       x="168.92053"
       y="175.57933" />
    <rect
       style="fill:#00009c;fill-opacity:1;stroke-width:0.207405;stroke-dasharray:none"
       id="rect8-4-6-5-2"
       width="19.81266"
       height="1.2343347"
       x="168.83582"
       y="168.28369" />
    <rect
       style="fill:#fcfcfc;fill-opacity:1;stroke-width:0.232558;stroke-dasharray:none"
       id="rect8-8-4"
       width="5.8444543"
       height="5.2608566"
       x="161.63278"
       y="179.00191" />
    <rect
       style="opacity:1;fill:#000000;fill-opacity:1;stroke-width:0.232636;stroke-dasharray:none"
       id="rect9"
       width="58.855976"
       height="0.22874926"
       x="-30.48266"
       y="227.13898"
       ry="0.11437463"
       transform="matrix(0.76672112,-0.64198032,0.5102377,0.86003342,0,0)" />
    <rect
       style="fill:#000000;fill-opacity:1;stroke-width:0.148232;stroke-dasharray:none"
       id="rect9-6"
       width="23.974422"
       height="0.22799912"
       x="147.09195"
       y="203.69662"
       ry="0.11399957"
       transform="matrix(0.98377908,-0.1793843,-0.03562295,0.9993653,0,0)" />
  </g>
</svg>
