<?xml version="1.0" encoding="utf-8"?>
<!-- Generator: Adobe Illustrator 27.5.0, SVG Export Plug-In . SVG Version: 6.00 Build 0)  -->
<svg version="1.1" xmlns="http://www.w3.org/2000/svg" xmlns:xlink="http://www.w3.org/1999/xlink" x="0px" y="0px"
	 viewBox="0 0 500 500" style="enable-background:new 0 0 500 500;" xml:space="preserve">
<g id="BACKGROUND">
	<rect style="fill:#FFFFFF;" width="500" height="500"/>
</g>
<g id="OBJECTS">
	<g>
		<g>
			<path style="fill:#D2EDFF;" d="M400.007,306.829c-6.232-0.117-11.857,0.202-16.983,0.872
				c-12.453,1.627-21.938,5.37-30.052,10.262c-21.726,13.069-33.583,34.359-65.953,45.259
				c-49.438,16.653-59.956-60.349-104.375-53.756c-10.017,1.489-22.81,0.893-36.284-1.691c-23.81-4.562-49.768-15.345-66.389-31.839
				c-15.685-15.547-23.076-36.188-12.548-61.487c8.124-19.503,16.281-31.732,23.799-39.262c3.647-3.669,7.146-6.232,10.411-7.965
				c12.485-6.657,23.821-15.324,33.264-25.788c1.967-2.169,3.85-4.403,5.636-6.721c38.379-49.64,108.458-29.669,137.309,7.178
				c33.785,43.132,88.02,21.268,132.449,61.189c1.999,1.797,3.924,3.648,5.774,5.54c12.984,13.282,22.098,28.659,26.32,43.249
				C450.934,281.317,439.587,307.541,400.007,306.829z"/>
			<path style="fill:#E9F7FF;" d="M416.064,208.622c-1.276-0.075-2.552-0.106-3.85-0.106c-39.081,0-70.76,31.679-70.76,70.749
				c0,14.292,4.232,27.585,11.517,38.698c8.114-4.892,17.6-8.635,30.052-10.262c-7.167-7.338-11.57-17.376-11.57-28.436
				c0-22.502,18.248-40.75,40.761-40.75c11.964,0,22.715,5.158,30.169,13.357C438.162,237.281,429.049,221.904,416.064,208.622z"/>
			<path style="fill:#E9F7FF;" d="M134.896,141.435c-9.443,10.464-20.779,19.131-33.264,25.788
				c-3.265,1.733-6.763,4.296-10.411,7.965c3.275-0.638,6.657-0.968,10.124-0.968c29.319,0,53.086,23.778,53.086,53.097
				c0,29.329-23.768,53.097-53.086,53.097c-7.603,0-14.835-1.595-21.375-4.477c16.621,16.494,42.579,27.277,66.389,31.839
				c28.138-15.781,47.163-45.897,47.163-80.458C193.522,188.247,169.212,154.855,134.896,141.435z"/>
		</g>
		<g>
			<path style="fill:#231435;" d="M195.376,219.537l-43.938,18.098c-0.435,0.179-0.926,0.157-1.343-0.061l-24.107-12.591
				c-1.199-0.626-1.12-2.367,0.131-2.882l43.938-18.098c0.435-0.179,0.926-0.157,1.343,0.061l24.107,12.591
				C196.705,217.281,196.626,219.022,195.376,219.537z"/>
			<path style="fill:#5B388E;" d="M169.272,204.327l-44.839,18.469c-0.813,0.335-1.743-0.053-2.077-0.865l-12.839-31.17
				c-0.335-0.813,0.053-1.743,0.865-2.077l44.839-18.469c0.813-0.335,1.743,0.053,2.077,0.865l12.839,31.17
				C170.472,203.062,170.084,203.992,169.272,204.327z"/>
			
				<rect x="123.507" y="172.794" transform="matrix(0.3809 0.9246 -0.9246 0.3809 268.2673 -7.6245)" style="fill:#D4B8FF;" width="32.639" height="47.423"/>
		</g>
		<g>
			<g>
				<path style="fill:#CFDBF9;" d="M344.826,223.021c-3.913-5.051-14.037-3.158-17.068-6.061c-2.659-2.542-4.732,0.925-7.072-0.138
					c-0.34-0.149-0.67-0.383-1.01-0.744c-2.01-2.084-3.477-2.35-6.274-1.68c-1.085,0.266-2.371,0.681-3.967,1.17
					c-5.679,1.776-6.444-0.372-11.496-0.627c-5.051-0.255-6.827,3.913-6.827,3.913l2.042-11.559c0-0.011,0-0.011,0-0.011
					l0.617-3.499l0.755-4.254c0,0-0.255-29.946-0.255-30.956c0-0.606,1.127-6.157,2.031-10.507c0.596-2.903,1.106-5.285,1.106-5.285
					s2.318-5.455,4.998-11.474c0.957-2.169,1.978-4.413,2.946-6.497c2.084-4.466,3.956-8.22,4.743-9.039
					c0.064-0.074,0.138-0.138,0.223-0.202l0.011-0.011c0.074-0.064,0.16-0.128,0.255-0.181c0.085-0.064,0.191-0.128,0.298-0.181
					c0.202-0.128,0.436-0.234,0.691-0.34c0.128-0.053,0.255-0.106,0.393-0.149c0.138-0.053,0.298-0.106,0.457-0.159
					c0.276-0.085,0.564-0.17,0.861-0.245c0.638-0.17,1.329-0.308,2.052-0.425c0.032,0,0.064-0.011,0.106-0.021
					c1.01-0.16,2.084-0.287,3.148-0.393c0.043,0,0.074,0,0.106-0.011c0.383-0.032,0.755-0.064,1.138-0.096
					c0.362-0.032,0.734-0.053,1.095-0.074l0.542-0.032c1.234-0.074,2.361-0.106,3.265-0.138c0,0,0,0,0.011,0
					c0.128,0,0.255-0.011,0.372-0.011c3.807-0.106,11.357,5.041,11.102,5.54c-0.064,0.128,0.287,3.148,0.851,7.71
					c0.032,0.245,0.064,0.489,0.096,0.744c0.138,1.042,0.276,2.148,0.425,3.318c0.064,0.489,0.128,0.978,0.191,1.489
					c0.042,0.361,0.096,0.734,0.138,1.106c0.053,0.404,0.106,0.808,0.159,1.223c0.032,0.266,0.064,0.521,0.106,0.798
					c0.191,1.51,0.393,3.084,0.606,4.69c0.117,0.893,0.234,1.797,0.351,2.701c0.989,7.476,2.021,15.249,2.776,20.896
					c0.181,1.372,0.351,2.616,0.489,3.701c0.393,2.914,0.638,4.69,0.638,4.69s0.096,5.158,0.298,11.91
					c0.064,2.446,0.138,5.115,0.234,7.816c0.149,4.243,0.319,8.592,0.521,12.378C344.315,217.714,344.56,221.021,344.826,223.021z"
					/>
				<linearGradient id="SVGID_1_" gradientUnits="userSpaceOnUse" x1="327.0606" y1="115.1878" x2="316.2579" y2="173.8445">
					<stop  offset="0" style="stop-color:#000000"/>
					<stop  offset="1" style="stop-color:#000000;stop-opacity:0"/>
				</linearGradient>
				<path style="opacity:0.45;fill:url(#SVGID_1_);" d="M338.796,149.719c-1.776,4.36-4.53,7.923-8.273,8.178
					c-8.539,0.564-6.997-9.475-13.357-11.304c-6.37-1.818-3.871-5.562-10.507-10.592c-0.51-0.383-0.946-0.787-1.308-1.191
					c2.084-4.466,3.956-8.22,4.743-9.039c2.169-2.233,11.219-2.563,15.026-2.669c3.807-0.106,11.357,5.041,11.102,5.54
					C336.106,128.865,337.35,138.628,338.796,149.719z"/>
				
					<linearGradient id="SVGID_00000104665707197098699670000009437738486416318874_" gradientUnits="userSpaceOnUse" x1="336.8493" y1="111.8246" x2="347.7151" y2="215.1761">
					<stop  offset="0" style="stop-color:#FF8D76"/>
					<stop  offset="1" style="stop-color:#F96846"/>
				</linearGradient>
				<path style="fill:url(#SVGID_00000104665707197098699670000009437738486416318874_);" d="M363.51,225.169
					c-3.158-2.52-4.796,1.904-6.444-1.638c-1.638-3.541-2.903-3.031-7.157-3.541c-4.254-0.5-2.063-5.551-5.849-6.189
					c-3.796-0.627-3.796,3.541-3.796,3.541s-1.638-0.883-3.286-5.689c-1.967-3.967-3.18-9.188-4.02-14.505
					c-1.17-7.316-1.648-14.835-2.435-19.62c-0.33-2.042-0.723-3.594-1.244-4.413c-2.659-4.169,1.255-6.061-1.648-14.016
					c-2.903-7.965-0.681-28.308-0.681-28.308l20.141,25.522c0.021,0.776,0.17,2.595,0.447,5.179
					c1.116,10.177,4.243,32.201,9.156,48.279C358.682,216.268,360.958,221.787,363.51,225.169z"/>
				
					<linearGradient id="SVGID_00000002385083130300639430000010607766376717186210_" gradientUnits="userSpaceOnUse" x1="399.6185" y1="156.7239" x2="321.3463" y2="191.9747">
					<stop  offset="0" style="stop-color:#000000"/>
					<stop  offset="1" style="stop-color:#000000;stop-opacity:0"/>
				</linearGradient>
				<path style="opacity:0.45;fill:url(#SVGID_00000002385083130300639430000010607766376717186210_);" d="M356.694,209.77
					c-2.244-0.691-4.254-3.297-5.689-6.838c-2.403-5.934-5.806,1.521-9.475-2.903c-2.244-2.712-6.008-3.041-8.571-2.882
					c-1.17-7.316-1.648-14.835-2.435-19.62c4.02-0.946,12.474-3.339,14.303-7.061c2.414-4.924-4.562-20.726-4.562-20.726
					l7.274,11.751C348.654,171.668,351.781,193.691,356.694,209.77z"/>
				
					<linearGradient id="SVGID_00000165197402551372313820000006111479570836266159_" gradientUnits="userSpaceOnUse" x1="290.6422" y1="116.6872" x2="301.508" y2="220.0392">
					<stop  offset="0" style="stop-color:#FF8D76"/>
					<stop  offset="1" style="stop-color:#F96846"/>
				</linearGradient>
				<path style="fill:url(#SVGID_00000165197402551372313820000006111479570836266159_);" d="M311.122,125.349
					c0,0-6.003,10.56-9.308,33.492c-3.305,22.932-6.338,46.243-11.265,54.771c-4.927,8.528-8.528,7.202-8.528,7.202
					s3.506-1.042,3.98-7.391c0.474-6.349,1.042-4.17,4.169-11.656c3.127-7.486-3.475-15.13-3.475-15.13l-7.328-14.277
					c0,0,10.613-29.565,14.404-35.63C297.561,130.666,311.122,125.349,311.122,125.349z"/>
				<path style="fill:#231435;" d="M256.34,184.426c0,0-14.214-24.398-13.645-24.518c0.569-0.12,19.521,8.219,22.174,8.598
					c2.653,0.379,54.188-18.763,54.188-18.763s11.386,45.692,11.765,47.294c0.379,1.602-36.53,7.513-40.723,6.832
					c-4.193-0.681-19.564-3.903-19.564-3.903S259.637,190.12,256.34,184.426z"/>
				
					<linearGradient id="SVGID_00000098178510447889960020000002221690463902922925_" gradientUnits="userSpaceOnUse" x1="311.7906" y1="170.9872" x2="363.9098" y2="197.5206">
					<stop  offset="0" style="stop-color:#FFD0B0"/>
					<stop  offset="1" style="stop-color:#FF9271"/>
				</linearGradient>
				<path style="fill:url(#SVGID_00000098178510447889960020000002221690463902922925_);" d="M336.159,181.1
					c0.351,6.338-5.296,7.933-5.296,7.933c-4.605-0.553-9.422-7.689-12.548-8.348c-1.159-0.245-3.137,0.011-5.083,0.34
					c-0.021,0.011-0.043,0.021-0.064,0.021c-3.286,0.532-6.508,1.244-5.796-0.032c1.138-2.042,6.38-3.977,12.08-3.935
					c-3.084-1.563-12.325,1.989-12.325,0.904s1.042-2.371,1.042-2.371s-0.702-1.085,0.766-2.414c1.467-1.329,8.05-2.85,11.23-1.85
					c-1.287-0.947-6.168-0.808-7.912-0.191c-1.755,0.617-3.467,0.712-2.797-0.33c0.659-1.042,5.253-3.456,8.529-2.893
					c3.265,0.574,6.349,2.85,5.87,1.234c-0.468-1.606-2.276-6.21-0.234-4.977c2.031,1.234,6.178,10.124,11.591,12.719
					C335.797,178.506,336.085,179.888,336.159,181.1z"/>
				
					<linearGradient id="SVGID_00000027605582293353923700000002507678115412292499_" gradientUnits="userSpaceOnUse" x1="320.9553" y1="189.2019" x2="333.0847" y2="167.2174">
					<stop  offset="0" style="stop-color:#000000"/>
					<stop  offset="1" style="stop-color:#000000;stop-opacity:0"/>
				</linearGradient>
				<path style="opacity:0.45;fill:url(#SVGID_00000027605582293353923700000002507678115412292499_);" d="M336.159,181.1
					c0.351,6.338-5.296,7.933-5.296,7.933c-4.605-0.553-9.422-7.689-12.548-8.348c-1.159-0.245-3.137,0.011-5.083,0.34
					c2.021-0.553,4.53-1.021,6.444-0.638c3.786,0.755,4.541,5.998,9.603,5.051C334.16,184.525,332.075,181.951,336.159,181.1z"/>
				
					<linearGradient id="SVGID_00000142154961408953707670000004614467796962250376_" gradientUnits="userSpaceOnUse" x1="267.3236" y1="184.6892" x2="228.2882" y2="203.2594">
					<stop  offset="0" style="stop-color:#FFD0B0"/>
					<stop  offset="1" style="stop-color:#FF9271"/>
				</linearGradient>
				<path style="fill:url(#SVGID_00000142154961408953707670000004614467796962250376_);" d="M263.134,194.914
					c-1.382,0.138-2.467-0.277-3.275-0.883c-0.638-0.468-1.095-1.053-1.404-1.584c-0.691-1.202-2.776-4.115-3.85-5.817
					c-1.074-1.701-1.255-4.02,0-4.222c0,0,5.498-0.766,7.763-2.467c2.276-1.702,3.35-1.893,3.541-1.329
					c0.191,0.574-1.202,4.041-5.657,6.38c4.328-0.946,5.913-4.296,7.05-3.786c1.138,0.5,0.564,2.276,0.564,2.276
					s1.329-0.128,0.947,2.084c-0.372,2.212-3.913,5.243-6.944,6.253c2.935-0.457,5.211-2.69,6.572-3.605
					c0.51-0.351,0.893-0.51,1.138-0.319C270.461,188.598,265.59,194.659,263.134,194.914z"/>
				
					<linearGradient id="SVGID_00000091005713828290923270000010286958966148120740_" gradientUnits="userSpaceOnUse" x1="307.573" y1="106.337" x2="306.1579" y2="129.8277">
					<stop  offset="0" style="stop-color:#FF8D76"/>
					<stop  offset="1" style="stop-color:#F96846"/>
				</linearGradient>
				<path style="fill:url(#SVGID_00000091005713828290923270000010286958966148120740_);" d="M311.122,125.349
					c0,0-3.517,0.323-6.549,6.152c-3.032,5.829-3.801,9.809-3.801,9.809h4.56L311.122,125.349z"/>
				
					<linearGradient id="SVGID_00000097474231326526114490000008689985925708289470_" gradientUnits="userSpaceOnUse" x1="345.2021" y1="110.9511" x2="356.068" y2="214.3037">
					<stop  offset="0" style="stop-color:#FF8D76"/>
					<stop  offset="1" style="stop-color:#F96846"/>
				</linearGradient>
				<path style="fill:url(#SVGID_00000097474231326526114490000008689985925708289470_);" d="M363.266,196.871
					c-3.137,0.447-7.199-0.043-11.389-0.946c-2.361-0.51-4.753-1.159-7.05-1.85c-7.561-2.276-13.963-5.041-13.963-5.041
					s8.018-2.265,4.349-12.123c12.506,0.5,18.95-0.755,18.95-0.755s-0.5-8.348-6.816-15.037c-6.317-6.7-18.323-18.706-19.716-24.895
					c-1.393-6.189,0.128-11.038-2.967-13.101c0,0,8.146-1.808,16.238,2.871c7.136,4.126,22.47,22.853,29.606,38.485
					c0.946,2.063,1.744,4.073,2.361,5.987C378.175,186.885,374.006,195.35,363.266,196.871z"/>
				
					<linearGradient id="SVGID_00000065754582088474392420000009610768631467106731_" gradientUnits="userSpaceOnUse" x1="329.3011" y1="104.5205" x2="327.8797" y2="128.1157">
					<stop  offset="0" style="stop-color:#FF8D76"/>
					<stop  offset="1" style="stop-color:#F96846"/>
				</linearGradient>
				<path style="fill:url(#SVGID_00000065754582088474392420000009610768631467106731_);" d="M324.663,123.123
					c0,0,0.757,4.258,0.883,8.301c0.126,4.043,0.733,8.455,0.733,8.455l4.544-2.454
					C330.825,137.425,332.142,125.584,324.663,123.123z"/>
				
					<linearGradient id="SVGID_00000046311493940393698810000012117198177590625177_" gradientUnits="userSpaceOnUse" x1="381.3233" y1="202.9161" x2="356.812" y2="178.2784">
					<stop  offset="0" style="stop-color:#000000"/>
					<stop  offset="1" style="stop-color:#000000;stop-opacity:0"/>
				</linearGradient>
				<path style="opacity:0.45;fill:url(#SVGID_00000046311493940393698810000012117198177590625177_);" d="M363.266,196.871
					c-3.137,0.447-7.199-0.043-11.389-0.946l-6.678-1.755c2.35,0.574,15.292,3.435,21.47-1.723
					c5.572-4.637,7.604-15.59,3.839-27.968c0.946,2.063,1.744,4.073,2.361,5.987C378.175,186.885,374.006,195.35,363.266,196.871z"
					/>
				
					<linearGradient id="SVGID_00000057830076216796154300000017577398336641910180_" gradientUnits="userSpaceOnUse" x1="274.7986" y1="204.8615" x2="258.8154" y2="182.8135">
					<stop  offset="0" style="stop-color:#000000"/>
					<stop  offset="1" style="stop-color:#000000;stop-opacity:0"/>
				</linearGradient>
				<path style="opacity:0.45;fill:url(#SVGID_00000057830076216796154300000017577398336641910180_);" d="M263.134,194.914
					c-1.382,0.138-2.467-0.277-3.275-0.883c1.266,0.096,2.967-0.085,4.849-1.074c1.744-0.915,2.797-2.871,3.733-4.743
					c0.51-0.351,0.893-0.51,1.138-0.319C270.461,188.598,265.59,194.659,263.134,194.914z"/>
			</g>
			<g>
				<path style="fill:#231435;" d="M329.465,106.043c-1.805-1.492-3.72-1.381-4.557,0c-0.837,1.381-1.018,3.65-1.855,3.357
					c-0.837-0.302-0.121-0.726-2.46-4.436c-2.329-3.71-1.512-9.991-1.512-9.991s-1.593,4.597-5.545,4.537
					c-1.754,2.359-7.652,5.757-12.764,5.404c-0.998-0.06-1.976-0.272-2.873-0.665c1.2-2.158-3.71-8.207-0.302-16.232
					c3.418-8.025,12.885-10.364,18.873-8.802c5.989,1.553,6.049,5.989,7.783,7.007c1.734,1.018,7.249-2.097,10.243,4.365
					C337.49,97.06,329.646,104.067,329.465,106.043z"/>
				
					<linearGradient id="SVGID_00000177445409094766126680000017096752892762506625_" gradientUnits="userSpaceOnUse" x1="314.2669" y1="116.9315" x2="317.6209" y2="82.3137">
					<stop  offset="0" style="stop-color:#FFD0B0"/>
					<stop  offset="1" style="stop-color:#FF9271"/>
				</linearGradient>
				<path style="fill:url(#SVGID_00000177445409094766126680000017096752892762506625_);" d="M324.908,112.152
					c-0.171,1.502-0.726,2.752-1.472,3.801c-1.855,2.591-4.89,3.942-6.251,4.708c-1.2,0.665-2.873,1.28-4.88,0.938
					c-1.2-0.192-2.51-0.726-3.922-1.785c-5.505-4.103-7.178-12.249-7.531-14.377c-0.061-0.343-0.081-0.524-0.081-0.524
					c5.111,0.353,11.009-3.045,12.764-5.404c3.952,0.06,5.545-4.537,5.545-4.537s-0.373,2.883,0.111,5.898
					c0.222,1.432,0.645,2.903,1.401,4.093c2.339,3.71,1.623,4.134,2.46,4.436c0.837,0.292,1.018-1.976,1.855-3.357
					c0.837-1.381,2.752-1.492,4.557,0C330.604,107.838,328.981,112.808,324.908,112.152z"/>
				
					<linearGradient id="SVGID_00000168100198477048835300000009976926428557938105_" gradientUnits="userSpaceOnUse" x1="317.8042" y1="133.8116" x2="319.8406" y2="95.7203">
					<stop  offset="0" style="stop-color:#FFD0B0"/>
					<stop  offset="1" style="stop-color:#FF9271"/>
				</linearGradient>
				<path style="fill:url(#SVGID_00000168100198477048835300000009976926428557938105_);" d="M324.363,126.197
					c-0.181,2.873-5.757,8.801-9.064,8.539c-3.317-0.272-3.065-1.976-2.621-7.461c0.121-1.391,0.101-2.571,0-3.539
					c-0.071-0.867-0.212-1.573-0.373-2.137c2.006,0.343,3.68-0.272,4.88-0.938c1.361-0.766,4.396-2.117,6.251-4.708
					c-0.181,2.41,0.313,4.991,0.645,7.148C324.272,124.301,324.413,125.37,324.363,126.197z"/>
				
					<linearGradient id="SVGID_00000063626605961777807550000009411702944193941149_" gradientUnits="userSpaceOnUse" x1="320.2378" y1="113.2823" x2="317.4828" y2="125.5002">
					<stop  offset="0" style="stop-color:#000000"/>
					<stop  offset="1" style="stop-color:#000000;stop-opacity:0"/>
				</linearGradient>
				<path style="opacity:0.45;fill:url(#SVGID_00000063626605961777807550000009411702944193941149_);" d="M324.081,123.101
					c-1.039-0.03-2.218,0.514-3.135,0.988c-2.067,1.079-3.367-2.702-6.957-0.857c-0.504,0.252-0.938,0.413-1.311,0.504
					c-0.071-0.867-0.212-1.573-0.373-2.137c2.006,0.343,3.68-0.272,4.88-0.938c1.361-0.766,4.396-2.117,6.251-4.708
					C323.254,118.363,323.748,120.944,324.081,123.101z"/>
				
					<linearGradient id="SVGID_00000101798708692293217170000014268991527221411730_" gradientUnits="userSpaceOnUse" x1="307.1583" y1="83.4149" x2="313.2673" y2="119.9492">
					<stop  offset="0" style="stop-color:#000000"/>
					<stop  offset="1" style="stop-color:#000000;stop-opacity:0"/>
				</linearGradient>
				<path style="opacity:0.45;fill:url(#SVGID_00000101798708692293217170000014268991527221411730_);" d="M319.191,100.871
					c-2.178,5.616-10.828,4.88-14.417,4.839c-1.845-0.02-3.095-0.141-3.922-0.272c-0.061-0.343-0.081-0.524-0.081-0.524
					c5.111,0.353,11.009-3.045,12.764-5.404c3.952,0.06,5.545-4.537,5.545-4.537S318.707,97.856,319.191,100.871z"/>
				<path style="fill:#231435;" d="M314.202,108.16c0.14,0.745-0.163,1.428-0.678,1.524c-0.514,0.097-1.045-0.429-1.185-1.174
					c-0.14-0.745,0.163-1.428,0.678-1.524C313.531,106.889,314.062,107.415,314.202,108.16z"/>
				<path style="fill:#231435;" d="M307.005,109.189c0.14,0.745-0.163,1.428-0.678,1.524c-0.514,0.097-1.045-0.429-1.185-1.174
					c-0.14-0.745,0.163-1.428,0.678-1.524C306.334,107.919,306.865,108.444,307.005,109.189z"/>
				<path style="fill:none;stroke:#FF9271;stroke-width:0.5317;stroke-miterlimit:10;" d="M309.311,109.661
					c0,0,0.403,0.45,0.379,1.09c-0.024,0.64-0.687,1.682-0.64,2.298c0.047,0.616,1.587,0.758,2.061,0.403"/>
				<path style="fill:none;stroke:#F96846;stroke-width:0.5317;stroke-miterlimit:10;" d="M310.08,116.365
					c0,0,4.813,1.576,7.081-2.311"/>
			</g>
			<path style="opacity:0.25;fill:none;stroke:#FFFFFF;stroke-width:0.5317;stroke-miterlimit:10;" d="M342.54,155.809
				c0,0-10.11-18.716,1.831-27.236"/>
			<path style="opacity:0.25;fill:none;stroke:#FFFFFF;stroke-width:0.5317;stroke-miterlimit:10;" d="M295.368,134.744
				c0,0,1.919,5.113-0.124,23.702"/>
			<g>
				<path style="fill:#231435;" d="M334.372,359.653c-3.76,6.452-7.147,20.735-12.52,24.286c-5.388,3.547-7.566,2.867-9.16-8.659
					c-1.471-10.596-1.949-26.098-3.779-31.745c3.33,0.139,3.988-4.642,7.229-4.549c3.704,0.101,2.082-2.795,3.989-3.503
					c1.295-0.465,2.185-1.63,2.305-2.755c3.326,4.231,8.39,9.256,12.409,12.948C340.236,350.628,338.132,353.201,334.372,359.653z"
					/>
				
					<linearGradient id="SVGID_00000139262194839914993670000015583688027110752654_" gradientUnits="userSpaceOnUse" x1="307.3293" y1="181.7371" x2="291.6624" y2="351.0417">
					<stop  offset="0" style="stop-color:#50317C"/>
					<stop  offset="1" style="stop-color:#714EA8"/>
				</linearGradient>
				<path style="fill:url(#SVGID_00000139262194839914993670000015583688027110752654_);" d="M313.402,214.396
					c-0.213,1.68-0.553,4.541-1,8.358c-0.829,7.263-1.989,18.014-3.116,30.765c-2.244,25.044-4.403,57.818-3.882,87.147
					c-4.892-7.316-9.645-15.303-12.272-22.045c-1.053-2.712-1.776-5.221-2.021-7.401c-1.733-15.196-0.308-79.289-0.043-90.646
					c0.032-1.117,0.043-1.723,0.043-1.723s1.776-4.169,6.827-3.913c5.051,0.255,5.817,2.403,11.496,0.627
					C311.03,215.077,312.317,214.662,313.402,214.396z"/>
				
					<linearGradient id="SVGID_00000083785375128270611000000002156055895514638239_" gradientUnits="userSpaceOnUse" x1="331.1132" y1="171.3015" x2="315.9522" y2="415.8961">
					<stop  offset="0" style="stop-color:#50317C"/>
					<stop  offset="1" style="stop-color:#714EA8"/>
				</linearGradient>
				<path style="fill:url(#SVGID_00000083785375128270611000000002156055895514638239_);" d="M343.964,236.175
					c-1.467,11.995-4.69,30.563-9.507,53.809c-7.327,35.38-6.668,89.274-6.572,90.976c0.032,0.542-0.149,1.042-0.489,1.467
					c-0.681,0.904-2.042,1.446-3.392,1.18c-1.999-0.372-2.095,2.946-5.221,0.957c-2.733-1.744-5.753,2.021-8.539,0.191
					c-0.404-0.245-0.798-0.627-1.191-1.148c-2.276-12.102-3.36-27.011-3.647-42.941c-0.787-44.26,4.53-96.378,6.997-117.912
					c0.447-3.818,0.787-6.678,1-8.358c2.797-0.67,4.264-0.404,6.274,1.68c0.34,0.361,0.67,0.595,1.01,0.744
					c2.34,1.063,4.413-2.403,7.072,0.138c3.031,2.903,13.155,1.01,17.068,6.061C345.028,225.435,344.741,229.912,343.964,236.175z"
					/>
				<path style="fill:#231435;" d="M323.813,411.661c-6.54,3.605-16.781,14.122-23.215,14.409
					c-6.444,0.276-7.965-1.425-3.413-12.134c4.179-9.847,11.729-23.395,13.059-29.18c2.786,1.829,5.806-1.935,8.539-0.191
					c3.126,1.989,3.222-1.329,5.221-0.957c1.351,0.266,2.712-0.277,3.392-1.18c0.681,5.338,2.446,12.251,3.998,17.483
					C333.479,406.929,330.353,408.056,323.813,411.661z"/>
				
					<linearGradient id="SVGID_00000153690542871633092690000016102405396885480600_" gradientUnits="userSpaceOnUse" x1="299.5304" y1="401.0856" x2="315.503" y2="401.0856">
					<stop  offset="0" style="stop-color:#FF8D76"/>
					<stop  offset="1" style="stop-color:#F96846"/>
				</linearGradient>
				
					<path style="fill:none;stroke:url(#SVGID_00000153690542871633092690000016102405396885480600_);stroke-width:1.0634;stroke-miterlimit:10;" d="
					M299.551,406.166c0,0,4.928-0.19,8.055,1.8c3.127,1.99,5.306-2.843,1.611-4.738c-3.696-1.895-7.77-0.853-7.012-4.359
					s7.297,0,10.234,0.095c2.938,0.095,3.79-3.601,0-4.643c-3.79-1.042-6.728-0.474-7.676,0"/>
				<path style="opacity:0.25;fill:none;stroke:#FFFFFF;stroke-width:0.5317;stroke-miterlimit:10;" d="M324.004,383.608
					c0,0-0.07-89.739,14.792-163.886"/>
				<path style="opacity:0.25;fill:none;stroke:#FFFFFF;stroke-width:0.5317;stroke-miterlimit:10;" d="M309.435,215.566
					c0,0-0.629,8.091-0.882,11.25c-0.253,3.159,2.713,6.269,2.713,6.269"/>
				<path style="opacity:0.25;fill:none;stroke:#FFFFFF;stroke-width:0.5317;stroke-miterlimit:10;" d="M313.402,214.396
					c0,0-2.732,18.368-2.78,24.933"/>
				
					<linearGradient id="SVGID_00000160886736153112996020000009601255325212652931_" gradientUnits="userSpaceOnUse" x1="345.1968" y1="176.9342" x2="307.6716" y2="245.5406">
					<stop  offset="0" style="stop-color:#000000"/>
					<stop  offset="1" style="stop-color:#000000;stop-opacity:0"/>
				</linearGradient>
				<path style="opacity:0.45;fill:url(#SVGID_00000160886736153112996020000009601255325212652931_);" d="M343.964,236.175
					c-2.01-3.584-4.69-6.614-7.795-5.944c-6.997,1.51-5.881-6.827-16.377-6.7c-3.679,0.042-5.753-0.298-7.391-0.776
					c-3.031-0.893-4.551-2.265-11.932-2.51c-4.551-0.149-7.497,0.042-9.401,0.33c0.032-1.117,0.043-1.723,0.043-1.723
					s1.776-4.169,6.827-3.913c5.051,0.255,5.817,2.403,11.496,0.627c1.595-0.489,2.882-0.904,3.967-1.17
					c2.797-0.67,4.264-0.404,6.274,1.68c0.34,0.361,0.67,0.595,1.01,0.744c2.34,1.063,4.413-2.403,7.072,0.138
					c3.031,2.903,13.155,1.01,17.068,6.061C345.028,225.435,344.741,229.912,343.964,236.175z"/>
				
					<linearGradient id="SVGID_00000013896814427971079500000005743890786742473117_" gradientUnits="userSpaceOnUse" x1="385.8047" y1="286.0352" x2="272.8504" y2="301.9549">
					<stop  offset="0" style="stop-color:#000000"/>
					<stop  offset="1" style="stop-color:#000000;stop-opacity:0"/>
				</linearGradient>
				<path style="opacity:0.45;fill:url(#SVGID_00000013896814427971079500000005743890786742473117_);" d="M305.405,340.667
					c-4.892-7.316-9.645-15.303-12.272-22.045c12.229-9.996,9.9-28.861,9.73-41.091c-0.117-8.72,3.68-18.28,6.423-24.012
					C307.042,278.563,304.884,311.338,305.405,340.667z"/>
			</g>
		</g>
		<g>
			<g>
				<path style="fill:#231435;" d="M184.706,402.664c-3.328,4.849-8.029,9.72-11.517,8.486l-0.011-0.011
					c-0.585-0.202-1.138-0.585-1.648-1.18c-3.509-4.073,0.287-12.134,3.031-17.344c2.744-5.211,1.701-12.314,0-16.015l8.337-9.858
					c3.999,6.551,12.368,10.741,14.984,14.271c0.298,0.404,0.521,0.797,0.659,1.18C199.86,385.979,188.588,396.975,184.706,402.664z
					"/>
				
					<linearGradient id="SVGID_00000051379922093396422860000013255719717603541127_" gradientUnits="userSpaceOnUse" x1="201.4871" y1="237.133" x2="126.185" y2="426.6517">
					<stop  offset="0" style="stop-color:#50317C"/>
					<stop  offset="1" style="stop-color:#714EA8"/>
				</linearGradient>
				<path style="fill:url(#SVGID_00000051379922093396422860000013255719717603541127_);" d="M196.362,287.719
					c0,0-4.828,4.445-11.368,9.22c-0.064,0.053-0.138,0.096-0.202,0.149c-6.625,4.839-16.674,21.141-13.835,32.317
					c1.914,7.518,7.338,21.47,10.751,30.318c1.659,4.307,2.839,7.412,2.903,7.965c0.181,1.712-6.444,11.57-11.379,10.613
					c-2.435-0.468-6.232-5.955-10.698-12.41c-0.532-0.766-1.074-1.553-1.627-2.361c-4.19-6.03-8.858-12.474-13.442-16.302
					c-10.241-8.529-17.44-26.352-8.348-40.187c9.103-13.835,52.31-34.87,52.31-34.87L196.362,287.719z"/>
				
					<linearGradient id="SVGID_00000079470885973864316510000015660654117014439304_" gradientUnits="userSpaceOnUse" x1="242.2209" y1="324.6018" x2="132.6777" y2="324.6018">
					<stop  offset="0" style="stop-color:#000000"/>
					<stop  offset="1" style="stop-color:#000000;stop-opacity:0"/>
				</linearGradient>
				<path style="opacity:0.45;fill:url(#SVGID_00000079470885973864316510000015660654117014439304_);" d="M184.994,296.939
					c-0.064,0.053-0.138,0.096-0.202,0.149c-6.625,4.839-16.674,21.141-13.835,32.317c1.914,7.518,7.338,21.47,10.751,30.318
					c-7.901-1.148-14.888,2.829-19.174,6.168c-2.595,2.01-4.211,3.797-4.434,4.041c0.149-0.319,1.383-2.946,2.807-6.402
					c2.457-5.902,5.508-14.239,4.754-17.632c-1.223-5.519-19.525-12.134-15.473-22.172c4.052-10.049-4.239-16.755,4.854-22.062
					c9.103-5.306,29.655-22.393,29.655-22.393L184.994,296.939z"/>
				<path style="opacity:0.25;fill:none;stroke:#FFFFFF;stroke-width:0.5317;stroke-miterlimit:10;" d="M176.773,294.285
					c0,0-21.732,20.215-25.017,27.796c-3.285,7.581,30.614,49.996,30.614,49.996"/>
				
					<linearGradient id="SVGID_00000172438769262971723140000005803975684488993937_" gradientUnits="userSpaceOnUse" x1="213.5666" y1="241.936" x2="138.2643" y2="431.4552">
					<stop  offset="0" style="stop-color:#50317C"/>
					<stop  offset="1" style="stop-color:#714EA8"/>
				</linearGradient>
				<path style="fill:url(#SVGID_00000172438769262971723140000005803975684488993937_);" d="M225.659,283.359
					c-1.776,8.901-44.653,43.962-53.373,57.308c-8.72,13.346-23.31,62.274-24.065,66.262c-0.596,3.126-1.542,5.902-3.116,5.934
					h-0.011c-0.425,0.011-0.904-0.181-1.425-0.628c-2.467-2.084-5.498,1.127-7.008-1.521c-1.127-1.978-3.201-0.798-4.424-1.638
					c-0.425-0.287-0.744-0.808-0.883-1.776c-0.574-3.786,8.337-57.042,18.95-77.321c10.613-20.28,41.122-57.808,41.122-57.808
					s6.561,0.415,13.952,1.585C215.29,275.33,226.68,278.255,225.659,283.359z"/>
				
					<linearGradient id="SVGID_00000138560287641510656810000017714174069711691649_" gradientUnits="userSpaceOnUse" x1="212.0814" y1="376.125" x2="139.8112" y2="298.801">
					<stop  offset="0" style="stop-color:#000000"/>
					<stop  offset="1" style="stop-color:#000000;stop-opacity:0"/>
				</linearGradient>
				<path style="opacity:0.45;fill:url(#SVGID_00000138560287641510656810000017714174069711691649_);" d="M225.659,283.359
					c-1.776,8.901-44.653,43.962-53.373,57.308c-8.72,13.346-23.31,62.274-24.065,66.262c-0.596,3.126-1.542,5.902-3.116,5.934
					h-0.011l-1.425-0.628c0,0,18.376-68.782,28.766-81.618c10.4-12.835,48.875-36.582,34.944-54.022
					c-0.872-1.095-1.531-2.042-1.999-2.839C215.29,275.33,226.68,278.255,225.659,283.359z"/>
				<path style="fill:#231435;" d="M146.764,429.229c-0.255,2.201-1.765,2.648-5.998,2.201c-4.232-0.436-14.09,0.447-19.726,1.521
					c-5.647,1.074-10.783,0.574-11.357-1.329c-0.564-1.893-1.521-7.263,7.008-10.23c7.593-2.637,13.676-8.88,15.547-12.314
					c1.223,0.84,3.297-0.34,4.424,1.638c1.51,2.648,4.541-0.564,7.008,1.521c0.521,0.447,1,0.638,1.425,0.628
					C145.317,418.52,146.966,427.463,146.764,429.229z"/>
				<path style="fill:#3D285B;" d="M184.706,402.664c-3.328,4.849-8.029,9.72-11.517,8.486l-0.011-0.011
					c-1.648-1.18-0.511-7.625,3.084-11.985c3.605-4.36,10.337-7.391,12.134-11.751c1.702-4.137,4.807-9.72,9.486-6.391
					c0.298,0.404,0.521,0.797,0.659,1.18C199.86,385.979,188.588,396.975,184.706,402.664z"/>
				<path style="opacity:0.25;fill:none;stroke:#FFFFFF;stroke-width:0.5317;stroke-miterlimit:10;" d="M205.305,275.333
					c0,0-34.091,43.211-45.968,68.48c-11.877,25.27-19.71,67.531-19.71,67.531"/>
			</g>
			<g>
				
					<linearGradient id="SVGID_00000041277217350952186250000015231534639834372790_" gradientUnits="userSpaceOnUse" x1="198.9975" y1="200.0892" x2="230.8363" y2="150.0569">
					<stop  offset="0" style="stop-color:#FFD0B0"/>
					<stop  offset="1" style="stop-color:#FF9271"/>
				</linearGradient>
				<path style="fill:url(#SVGID_00000041277217350952186250000015231534639834372790_);" d="M223.596,191.065l-7.338,2.573v0.011
					l-3.701,1.297c0,0-0.851-2.988-2.414-3.456c-1.563-0.479-3.36,3.839-6.583,2.839c-3.222-1-5.732-7.529-5.976-8.008
					c-0.234-0.479-1.468-0.33-1.84-0.712c-0.383-0.372,0.755-2.605,0.893-3.69c-0.681-2.031-0.84-4.839-0.883-5.913
					c-0.011-0.17-0.011-0.287-0.011-0.362c0-0.053,0-0.075,0-0.075s0.096,0.011,0.266,0.021c0.383,0.032,1.191,0.075,2.286,0.011
					c1.276-0.053,2.924-0.234,4.785-0.702c1.467,2.988,5.36,2.329,5.976,3.935c0.617,1.617,1.84,3.031,1.84,1.276
					c0-1.755,1-3.924,2.988-4.211c1.989-0.287,4.318,1.51,3.839,4.02c-0.479,2.52-3.605,1.574-3.605,1.574s2.137,2.978,6.774,3.764
					c0.128,0.627,0.298,1.202,0.479,1.733c0,0.011,0,0.011,0,0.021C222.266,189.629,223.596,191.065,223.596,191.065z"/>
				
					<linearGradient id="SVGID_00000147190785208588989800000015653056804394179005_" gradientUnits="userSpaceOnUse" x1="223.2701" y1="164.25" x2="203.7495" y2="194.4785">
					<stop  offset="0" style="stop-color:#000000"/>
					<stop  offset="1" style="stop-color:#000000;stop-opacity:0"/>
				</linearGradient>
				<path style="opacity:0.45;fill:url(#SVGID_00000147190785208588989800000015653056804394179005_);" d="M216.258,193.638
					c0.053-0.447,3.977-5.849-0.67-7.008c-4.637-1.148-2.605-4.764-6.795-5.902c-4.19-1.138-4.339-2.701-8.316-4.456
					c-0.798-0.351-1.531-0.564-2.18-0.67c1.276-0.053,2.924-0.234,4.785-0.702c1.467,2.988,5.36,2.329,5.976,3.935
					c0.617,1.617,1.84,3.031,1.84,1.276c0-1.755,1-3.924,2.988-4.211c1.989-0.287,4.318,1.51,3.839,4.02
					c-0.479,2.52-3.605,1.574-3.605,1.574s2.137,2.978,6.774,3.764c0.128,0.627,0.298,1.202,0.479,1.733c0,0.011,0,0.011,0,0.021
					c0.893,2.616,2.223,4.052,2.223,4.052L216.258,193.638z"/>
				<path style="fill:#231435;" d="M221.373,186.992c-0.181-0.532-0.351-1.106-0.479-1.733c-4.637-0.787-6.774-3.764-6.774-3.764
					s3.126,0.947,3.605-1.574c0.479-2.51-1.85-4.307-3.839-4.02c-1.989,0.287-2.988,2.456-2.988,4.211
					c0,1.755-1.223,0.34-1.84-1.276c-0.617-1.606-4.509-0.946-5.976-3.935c-4.169,1.042-7.338,0.67-7.338,0.67s0,0.16,0.011,0.436
					c-5.275-0.298-11.145-9.305-7.455-18.206c3.701-8.911,13.271-7.678,18.759-3.509c5.498,4.169,4.934,6.349,9.666,7.487
					c4.743,1.138,10.241-2.935,13.271,3.509C233.028,171.721,219.704,180.09,221.373,186.992z"/>
				<path style="fill:#231435;" d="M200.114,180.016c0.189,0.681-0.045,1.34-0.524,1.474c-0.479,0.133-1.021-0.31-1.21-0.991
					c-0.189-0.681,0.045-1.34,0.524-1.474C199.383,178.891,199.925,179.335,200.114,180.016z"/>
				<path style="fill:#FFFFFF;" d="M200.882,188.241l4.477-3.127c0,0,0.261,3.198-1.398,4.098
					C202.303,190.112,200.882,188.241,200.882,188.241z"/>
				
					<linearGradient id="SVGID_00000002366528225075858120000018073882707487895721_" gradientUnits="userSpaceOnUse" x1="195.7448" y1="175.608" x2="196.0106" y2="175.608">
					<stop  offset="0" style="stop-color:#000000"/>
					<stop  offset="1" style="stop-color:#000000;stop-opacity:0"/>
				</linearGradient>
				<path style="opacity:0.45;fill:url(#SVGID_00000002366528225075858120000018073882707487895721_);" d="M195.745,175.571
					c0,0,0.096,0.011,0.266,0.021c-0.096,0.021-0.181,0.043-0.266,0.053C195.745,175.592,195.745,175.571,195.745,175.571z"/>
			</g>
			<g>
				<path style="fill:#CFDBF9;" d="M196.831,250.664c0,0,0.284,6.728-2.653,12.698c-2.938,5.97-4.075,7.202-2.748,8.813
					c1.327,1.611,3.995-1.516,5.409,2.18c1.414,3.696,7.1,0.758,8.995,4.454c1.895,3.696,1.516-15.92,1.516-15.92l-3.317-12.224
					H196.831z"/>
				
					<linearGradient id="SVGID_00000121957545368180171990000000517718704484594863_" gradientUnits="userSpaceOnUse" x1="172.5578" y1="217.5886" x2="229.1346" y2="239.061">
					<stop  offset="0" style="stop-color:#FFD0B0"/>
					<stop  offset="1" style="stop-color:#FF9271"/>
				</linearGradient>
				<path style="fill:url(#SVGID_00000121957545368180171990000000517718704484594863_);" d="M230.593,235.218
					c-6.444,9.954-9.858,10.709-20.375,7.582c-10.517-3.126-23.597-22.736-26.15-23.587c-0.521-0.17-1.244-0.479-2.063-0.861
					c-0.936,0.042-3.586,0.141-5.043-0.475c-1.202-0.511,0.757-0.79,1.714-1.258c-2.446-1.383-4.637-2.924-4.371-3.637
					c0.479-1.287,2.371-2.871,6.253-2.775c3.882,0.096,9.858,4.073,9.858,4.073s10.134,3.509,14.399,7.774
					c4.264,4.264,8.688,3.711,9.922,2.201C218.608,236.239,230.593,235.218,230.593,235.218z"/>
				
					<linearGradient id="SVGID_00000078046031228855529050000014710716919552718248_" gradientUnits="userSpaceOnUse" x1="211.489" y1="176.3966" x2="243.8331" y2="311.8378">
					<stop  offset="0" style="stop-color:#FF8D76"/>
					<stop  offset="1" style="stop-color:#F96846"/>
				</linearGradient>
				<path style="fill:url(#SVGID_00000078046031228855529050000014710716919552718248_);" d="M266.388,263.931
					c-3.796,0.096-5.689,3.701-6.072,9.954c-0.372,6.253-4.35,5.211-6.157,7.667c-1.797,2.467-5.966-3.031-11.846-0.851
					c-3.254,1.212-5.37,4.764-8.135,7.433c-2.233,2.137-4.902,3.711-8.922,2.988c-8.997-1.606-13.548-6.529-17.43-5.679
					c-3.892,0.851-3.318,4.073-3.318,4.073s-3.031-13.08-4.073-21.513c-1.042-8.433,0.564-16.302,0.564-16.302
					s-1-6.221-2.021-14.962c-0.425-3.764-0.872-7.997-1.233-12.41c-1.67-20.407,13.495-26.543,13.495-26.543
					s-0.957-3.318,1.319-4.828c2.276-1.521,12.421-3.796,13.644-3.031c1.234,0.755,1.234,3.031,1.234,3.031
					s9.954,0.468,14.122,12.123c4.169,11.655,1.616,21.109,3.881,34.253C247.714,252.467,259.274,262.229,266.388,263.931z"/>
				
					<linearGradient id="SVGID_00000007418036232049309180000011405880553607732154_" gradientUnits="userSpaceOnUse" x1="148.5914" y1="239.1242" x2="246.1314" y2="257.8236">
					<stop  offset="0" style="stop-color:#000000"/>
					<stop  offset="1" style="stop-color:#000000;stop-opacity:0"/>
				</linearGradient>
				<path style="opacity:0.45;fill:url(#SVGID_00000007418036232049309180000011405880553607732154_);" d="M234.177,288.134
					c-2.233,2.137-4.902,3.711-8.922,2.988c-8.997-1.606-13.548-6.529-17.43-5.679c-3.892,0.851-3.318,4.073-3.318,4.073
					s-3.031-13.08-4.073-21.513c-1.042-8.433,0.564-16.302,0.564-16.302s-1-6.221-2.021-14.962l14.643-24.82
					c0,0,4.126,10.634,0,21.162c-4.126,10.538-6.785,13.155-2.669,20.439c4.105,7.284-2.446,8.678-1.319,17.387
					c1.127,8.72,5.189,7.965,8.582,13.654C220.757,288.815,228.987,290.027,234.177,288.134z"/>
				
					<linearGradient id="SVGID_00000060746972316755294370000005796307096327641256_" gradientUnits="userSpaceOnUse" x1="191.9392" y1="181.066" x2="224.284" y2="316.5099">
					<stop  offset="0" style="stop-color:#FF8D76"/>
					<stop  offset="1" style="stop-color:#F96846"/>
				</linearGradient>
				<path style="fill:url(#SVGID_00000060746972316755294370000005796307096327641256_);" d="M214.27,220.894
					c-0.946,10.815-7.774,25.501-7.774,25.501s-11.985,1.021-15.855-10.964c-0.053-0.16-0.106-0.33-0.16-0.5
					c2.467-9.571,6.7-31.754,14.824-33.03C210.473,203.571,215.216,210.068,214.27,220.894z"/>
				
					<linearGradient id="SVGID_00000047755064371491674150000012014991430871794873_" gradientUnits="userSpaceOnUse" x1="149.2836" y1="229.0773" x2="250.4876" y2="267.4868">
					<stop  offset="0" style="stop-color:#FFD0B0"/>
					<stop  offset="1" style="stop-color:#FF9271"/>
				</linearGradient>
				<path style="fill:url(#SVGID_00000047755064371491674150000012014991430871794873_);" d="M206.496,246.395
					c-0.085,0.128-0.159,0.255-0.245,0.372c0,0.011,0,0.021-0.011,0.021c-0.319,0.479-0.627,0.936-0.925,1.372
					c-0.011,0.032-0.043,0.074-0.075,0.106c-5.679,8.167-9.305,8.624-19.12,5.711c-5.072-1.51-10.741-6.859-15.537-12.07
					c-5.147-5.615-9.294-11.081-10.613-11.517c-2.563-0.861-10.241-4.934-9.762-6.232c0.479-1.287,2.371-2.871,6.253-2.776
					c3.881,0.096,9.858,4.073,9.858,4.073s10.134,3.509,14.399,7.774c4.264,4.264,8.688,3.711,9.922,2.201
					c3.733,11.57,15.026,11.017,15.813,10.964C206.485,246.395,206.496,246.395,206.496,246.395z"/>
				<path style="opacity:0.25;fill:none;stroke:#FFFFFF;stroke-width:0.5317;stroke-miterlimit:10;" d="M213.81,212.69
					c0,0,0.348-6.96-8.505-10.789"/>
				
					<linearGradient id="SVGID_00000099650440255080792590000001982174366881162892_" gradientUnits="userSpaceOnUse" x1="191.6315" y1="271.0109" x2="185.093" y2="225.4311">
					<stop  offset="0" style="stop-color:#000000"/>
					<stop  offset="1" style="stop-color:#000000;stop-opacity:0"/>
				</linearGradient>
				<path style="opacity:0.45;fill:url(#SVGID_00000099650440255080792590000001982174366881162892_);" d="M205.241,248.266
					c-5.679,8.167-9.305,8.624-19.12,5.711c-5.072-1.51-10.741-6.859-15.537-12.07c2.169,1.563,4.413,3.137,6.444,4.509
					c7.295,4.913,11.368,7.657,18.376,6.147C200.445,251.467,203.221,250.755,205.241,248.266z"/>
				
					<linearGradient id="SVGID_00000081649817283390666450000005243146150334188929_" gradientUnits="userSpaceOnUse" x1="206.8913" y1="246.5807" x2="206.1345" y2="246.5807">
					<stop  offset="0" style="stop-color:#000000"/>
					<stop  offset="1" style="stop-color:#000000;stop-opacity:0"/>
				</linearGradient>
				<path style="fill:url(#SVGID_00000081649817283390666450000005243146150334188929_);" d="M206.496,246.395
					c-0.085,0.128-0.159,0.255-0.245,0.372c0.074-0.117,0.138-0.245,0.202-0.372C206.485,246.395,206.496,246.395,206.496,246.395z"
					/>
			</g>
		</g>
		<g>
			<g>
				<circle style="fill:#231435;" cx="213.812" cy="145.385" r="2.264"/>
				<path style="fill:#231435;" d="M309.392,67.085c0,1.251-1.014,2.264-2.265,2.264c-1.251,0-2.264-1.014-2.264-2.264
					c0-1.251,1.014-2.265,2.264-2.265C308.378,64.82,309.392,65.834,309.392,67.085z"/>
				<path style="fill:none;stroke:#231435;stroke-width:1.0634;stroke-miterlimit:10;" d="M213.812,145.385
					c0,0,3.202-65.764,35.421-80.167s57.894,2.274,57.894,2.274"/>
			</g>
			<g>
				<path style="fill:none;stroke:#231435;stroke-width:1.9508;stroke-miterlimit:10;" d="M282.845,117.977
					c-1.912,4.333-6.975,6.296-11.308,4.384c-4.333-1.912-6.296-6.975-4.384-11.308c1.912-4.333,6.975-6.296,11.308-4.384
					C282.794,108.581,284.757,113.644,282.845,117.977z"/>
				
					<line style="fill:none;stroke:#231435;stroke-width:1.9508;stroke-miterlimit:10;" x1="271.537" y1="122.361" x2="263.766" y2="139.975"/>
			</g>
			<g>
				<path style="fill:#231435;" d="M290.485,90.437l-13.261,3.531l-20.45,5.455c-2.042,0.553-4.147-0.67-4.69-2.712l-9.986-37.443
					c-0.542-2.042,0.681-4.137,2.722-4.69l33.71-8.986c2.042-0.542,4.147,0.681,4.69,2.722l5.604,21.034l4.371,16.398
					C293.75,87.799,292.527,89.895,290.485,90.437z"/>
				
					<linearGradient id="SVGID_00000132048155115791161460000003245551878169770140_" gradientUnits="userSpaceOnUse" x1="311.0685" y1="107.7267" x2="257.2445" y2="57.6932">
					<stop  offset="0" style="stop-color:#000000"/>
					<stop  offset="1" style="stop-color:#000000;stop-opacity:0"/>
				</linearGradient>
				<path style="opacity:0.45;fill:url(#SVGID_00000132048155115791161460000003245551878169770140_);" d="M290.485,90.437
					l-13.261,3.531l-4.371-16.387c-0.542-2.052,0.67-4.147,2.722-4.7l13.25-3.531l4.371,16.398
					C293.75,87.799,292.527,89.895,290.485,90.437z"/>
				<g>
					<path style="fill:#CFDBF9;" d="M275.645,68.83c0.232,6.921-4.296,9.581-3.898,11.076l-1.897,0.857l-0.04,0.019l-0.044,0.004
						l-2.072,0.201c-0.398-1.494-5.65-1.548-8.893-7.666c-3.228-6.09,0.785-11.447,5.571-12.771l0.085-0.022
						C269.267,59.292,275.407,61.943,275.645,68.83z"/>
					
						<linearGradient id="SVGID_00000035508655095530540960000014802041628213443756_" gradientUnits="userSpaceOnUse" x1="272.3367" y1="78.8078" x2="277.2245" y2="94.509" gradientTransform="matrix(0.9663 -0.2576 0.2576 0.9663 -14.5022 75.0729)">
						<stop  offset="0" style="stop-color:#FF8D76"/>
						<stop  offset="1" style="stop-color:#F96846"/>
					</linearGradient>
					<path style="fill:url(#SVGID_00000035508655095530540960000014802041628213443756_);" d="M272.216,84.947l-2.333,0.622
						c-0.383,0.102-0.776-0.126-0.878-0.508l-0.432-1.623c-0.102-0.383,0.126-0.776,0.509-0.878l2.333-0.622
						c0.383-0.102,0.776,0.126,0.878,0.508l0.433,1.623C272.826,84.452,272.599,84.845,272.216,84.947z"/>
					
						<linearGradient id="SVGID_00000143597665724076922560000003643998806437925294_" gradientUnits="userSpaceOnUse" x1="269.3808" y1="71.2161" x2="273.836" y2="80.905" gradientTransform="matrix(0.9663 -0.2576 0.2576 0.9663 -14.5022 75.0729)">
						<stop  offset="0" style="stop-color:#FF8D76"/>
						<stop  offset="1" style="stop-color:#F96846"/>
					</linearGradient>
					<path style="fill:url(#SVGID_00000143597665724076922560000003643998806437925294_);" d="M272.253,82.722l-3.511,0.936
						c-0.45,0.12-0.912-0.148-1.032-0.598l-0.368-1.379c-0.12-0.45,0.148-0.912,0.598-1.032l3.511-0.936
						c0.45-0.12,0.912,0.148,1.032,0.598l0.368,1.379C272.971,82.139,272.703,82.602,272.253,82.722z"/>
					<polygon style="fill:#231435;" points="269.775,80.481 269.779,80.495 269.735,80.499 					"/>
					<polygon style="fill:#231435;" points="269.735,80.499 269.695,80.517 269.691,80.503 					"/>
					
						<line style="fill:none;stroke:#CFDBF9;stroke-width:0.7281;stroke-miterlimit:10;" x1="263.126" y1="55.788" x2="263.895" y2="58.672"/>
					
						<line style="fill:none;stroke:#CFDBF9;stroke-width:0.7281;stroke-miterlimit:10;" x1="269.783" y1="55.328" x2="269.461" y2="58.296"/>
					
						<line style="fill:none;stroke:#CFDBF9;stroke-width:0.7281;stroke-miterlimit:10;" x1="257.711" y1="58.346" x2="259.546" y2="60.7"/>
				</g>
			</g>
			<g>
				<g>
					
						<linearGradient id="SVGID_00000004544373285789374670000008808766949806245534_" gradientUnits="userSpaceOnUse" x1="177.1201" y1="130.7625" x2="195.347" y2="130.7625">
						<stop  offset="0" style="stop-color:#FF8D76"/>
						<stop  offset="1" style="stop-color:#F96846"/>
					</linearGradient>
					<path style="fill:url(#SVGID_00000004544373285789374670000008808766949806245534_);" d="M194.818,127.174
						c1.873,6.666-1.891,10.329-1.148,11.685l-1.638,1.284l-0.035,0.028l-0.042,0.014l-1.964,0.689
						c-0.743-1.357-5.856-0.158-10.463-5.328c-4.585-5.146-1.964-11.304,2.369-13.73l0.077-0.042
						C186.353,119.43,192.947,120.542,194.818,127.174z"/>
					<path style="fill:#231435;" d="M195.326,143.644l-2.118,1.16c-0.348,0.19-0.784,0.063-0.974-0.285l-0.807-1.473
						c-0.19-0.348-0.063-0.784,0.285-0.974l2.118-1.16c0.348-0.19,0.784-0.063,0.974,0.285l0.807,1.473
						C195.801,143.018,195.674,143.454,195.326,143.644z"/>
					<path style="fill:#231435;" d="M194.833,141.474l-3.187,1.745c-0.409,0.224-0.921,0.074-1.145-0.335l-0.686-1.252
						c-0.224-0.409-0.074-0.921,0.335-1.145l3.187-1.745c0.409-0.224,0.921-0.074,1.145,0.335l0.686,1.252
						C195.391,140.737,195.241,141.25,194.833,141.474z"/>
					<polygon style="fill:#231435;" points="191.892,139.887 191.899,139.9 191.857,139.915 					"/>
					<polygon style="fill:#231435;" points="191.857,139.915 191.823,139.942 191.816,139.929 					"/>
					
						<linearGradient id="SVGID_00000080900081653340167410000018060249509619409544_" gradientUnits="userSpaceOnUse" x1="179.0872" y1="118.7978" x2="181.4534" y2="118.7978">
						<stop  offset="0" style="stop-color:#FF8D76"/>
						<stop  offset="1" style="stop-color:#F96846"/>
					</linearGradient>
					
						<line style="fill:none;stroke:url(#SVGID_00000080900081653340167410000018060249509619409544_);stroke-width:1.0634;stroke-miterlimit:10;" x1="179.554" y1="117.489" x2="180.987" y2="120.107"/>
					
						<linearGradient id="SVGID_00000042733539675955299350000008146873971500849554_" gradientUnits="userSpaceOnUse" x1="185.3829" y1="116.936" x2="186.8313" y2="116.936">
						<stop  offset="0" style="stop-color:#FF8D76"/>
						<stop  offset="1" style="stop-color:#F96846"/>
					</linearGradient>
					
						<line style="fill:none;stroke:url(#SVGID_00000042733539675955299350000008146873971500849554_);stroke-width:1.0634;stroke-miterlimit:10;" x1="185.91" y1="115.457" x2="186.304" y2="118.415"/>
					
						<linearGradient id="SVGID_00000103230900434648948700000000473444833123711365_" gradientUnits="userSpaceOnUse" x1="174.5744" y1="122.1872" x2="177.5761" y2="122.1872">
						<stop  offset="0" style="stop-color:#FF8D76"/>
						<stop  offset="1" style="stop-color:#F96846"/>
					</linearGradient>
					
						<line style="fill:none;stroke:url(#SVGID_00000103230900434648948700000000473444833123711365_);stroke-width:1.0634;stroke-miterlimit:10;" x1="174.904" y1="121.263" x2="177.247" y2="123.112"/>
				</g>
			</g>
		</g>
	</g>
</g>
<g id="DESIGNED_BY_FREEPIK">
	<g>
		<g id="XMLID_319_">
			<g id="XMLID_338_">
				<path id="XMLID_346_" style="fill:#1D262D;" d="M260.104,465.465c-0.432,0.443-0.803,0.931-1.108,1.453l-0.465-0.241
					c-0.067-0.298-0.349-0.503-0.659-0.466c-0.331,0.039-0.568,0.339-0.529,0.67c0.039,0.331,0.339,0.568,0.67,0.529
					c0.066-0.008,0.127-0.026,0.184-0.052l0.451,0.234c-0.251,0.554-0.433,1.139-0.539,1.744l0.747,0.132
					c0.23-1.306,0.85-2.507,1.792-3.473L260.104,465.465z"/>
				<path id="XMLID_345_" style="fill:#1D262D;" d="M265.592,463.163c-0.171,0-0.341,0.006-0.51,0.017l-0.074-0.626
					c0.188-0.149,0.296-0.389,0.266-0.645c-0.046-0.393-0.402-0.674-0.795-0.628c-0.393,0.046-0.674,0.402-0.628,0.795
					c0.03,0.254,0.189,0.461,0.404,0.564l0.074,0.624c-0.714,0.116-1.403,0.332-2.06,0.646l0.327,0.684
					c0.934-0.447,1.942-0.673,2.995-0.673c0.496,0,0.993,0.053,1.475,0.158l0.161-0.741
					C266.692,463.222,266.142,463.163,265.592,463.163z"/>
				<path id="XMLID_344_" style="fill:#1D262D;" d="M272.194,465.711c0.331-0.04,0.566-0.341,0.526-0.672
					c-0.04-0.331-0.341-0.566-0.672-0.526c-0.309,0.038-0.535,0.304-0.53,0.609l-0.416,0.363c-0.418-0.43-0.889-0.813-1.408-1.139
					l-0.404,0.641c1.134,0.715,2.021,1.726,2.563,2.925l0.69-0.313c-0.251-0.554-0.567-1.072-0.942-1.545l0.402-0.351
					C272.065,465.716,272.129,465.719,272.194,465.711z"/>
				<path id="XMLID_343_" style="fill:#1D262D;" d="M265.044,473.372c-0.386,0.023-0.775,0.035-1.157,0.035
					c-0.88,0-1.733-0.061-2.478-0.179c-0.39-0.062-0.846-0.155-1.27-0.292c1.046,1.861,3.069,3.125,5.388,3.125
					c2.855,0,5.262-1.916,5.95-4.504c-0.682,0.449-1.505,0.825-2.459,1.123C267.839,473.047,266.463,473.286,265.044,473.372z"/>
				<path id="XMLID_339_" style="fill:#1D262D;" d="M265.592,464.68c-3.352,0-6.08,2.666-6.08,5.943
					c0,0.426,0.046,0.849,0.137,1.261c0.673,0.483,2.706,0.89,5.348,0.731c2.879-0.173,5.297-0.957,6.672-2.159
					c-0.006-0.195-0.021-0.39-0.045-0.582C271.244,466.913,268.65,464.68,265.592,464.68z M263.432,471.194
					c-1.02,0-1.85-0.83-1.85-1.85c0-1.02,0.83-1.85,1.85-1.85c1.02,0,1.85,0.83,1.85,1.85
					C265.282,470.365,264.452,471.194,263.432,471.194z M268.17,470.286c-0.75,0-1.36-0.61-1.36-1.36s0.61-1.361,1.36-1.361
					c0.75,0,1.361,0.61,1.361,1.361S268.92,470.286,268.17,470.286z"/>
			</g>
			<path id="XMLID_336_" style="fill:#1D262D;" d="M281.595,466.547c-0.295-0.116-0.805-0.309-1.382-0.237
				c-0.551,0.069-0.844,0.341-0.844,1.007v0.866h2.228v1.717h-2.228v5.455h-1.932v-5.455h-1.34v-1.717h1.34v-0.888
				c0-1.68,0.896-2.783,2.568-2.783c0.643,0,1.157,0.122,1.59,0.308L281.595,466.547z"/>
			<path id="XMLID_334_" style="fill:#1D262D;" d="M286.298,469.879c-0.177-0.03-0.358-0.046-0.526-0.046
				c-0.896,0-1.51,0.548-1.51,1.614v3.908h-1.932v-7.172h1.873v0.785c0.451-0.673,1.14-0.977,2.021-0.977
				c0.414,0,0.848,0.128,1.094,0.337L286.298,469.879z"/>
			<path id="XMLID_331_" style="fill:#1D262D;" d="M293.965,471.757c0,0.222-0.015,0.489-0.037,0.651h-5.085
				c0.207,1.036,0.933,1.488,1.843,1.488c0.622,0,1.295-0.252,1.813-0.688l1.133,1.243c-0.814,0.748-1.85,1.088-3.057,1.088
				c-2.198,0-3.723-1.495-3.723-3.753c0-2.258,1.48-3.797,3.627-3.797C292.544,467.99,293.958,469.522,293.965,471.757z
				 M288.851,471.091h3.175c-0.177-0.918-0.733-1.436-1.562-1.436C289.554,469.655,289.021,470.203,288.851,471.091z"/>
			<path id="XMLID_328_" style="fill:#1D262D;" d="M301.618,471.757c0,0.222-0.015,0.489-0.037,0.651h-5.085
				c0.207,1.036,0.932,1.488,1.843,1.488c0.622,0,1.295-0.252,1.814-0.688l1.132,1.243c-0.814,0.748-1.85,1.088-3.057,1.088
				c-2.198,0-3.723-1.495-3.723-3.753c0-2.258,1.48-3.797,3.627-3.797C300.197,467.99,301.611,469.522,301.618,471.757z
				 M296.504,471.091h3.175c-0.178-0.918-0.733-1.436-1.562-1.436C297.207,469.655,296.674,470.203,296.504,471.091z"/>
			<path id="XMLID_325_" style="fill:#1D262D;" d="M309.964,471.764c0,2.154-1.495,3.775-3.471,3.775
				c-0.962,0-1.643-0.378-2.109-0.933v3.708h-1.924v-10.133h1.887v0.792c0.466-0.585,1.155-0.984,2.139-0.984
				C308.469,467.99,309.964,469.61,309.964,471.764z M304.287,471.764c0,1.132,0.747,1.976,1.843,1.976
				c1.14,0,1.85-0.881,1.85-1.976c0-1.095-0.71-1.976-1.85-1.976C305.035,469.788,304.287,470.632,304.287,471.764z"/>
			<path id="XMLID_322_" style="fill:#1D262D;" d="M313.068,465.836c0,0.696-0.54,1.229-1.236,1.229
				c-0.696,0-1.229-0.533-1.229-1.229c0-0.696,0.533-1.243,1.229-1.243C312.527,464.592,313.068,465.14,313.068,465.836z
				 M312.809,475.354h-1.932v-7.172h1.932V475.354z"/>
			<path id="XMLID_320_" style="fill:#1D262D;" d="M316.032,470.736l2.701-2.554h2.368l-3.479,3.375l3.501,3.797h-2.376
				l-2.716-2.901v2.901H314.1v-10.658h1.932V470.736z"/>
		</g>
		<g>
			<path style="fill:#1D262D;" d="M184.412,475.289v-1.055c-0.527,0.718-1.391,1.23-2.388,1.23c-1.846,0-3.149-1.406-3.149-3.706
				c0-2.256,1.289-3.721,3.149-3.721c0.952,0,1.816,0.469,2.388,1.245v-3.765h1.099v9.77H184.412z M184.412,473.37v-3.208
				c-0.395-0.615-1.245-1.143-2.124-1.143c-1.421,0-2.27,1.172-2.27,2.739c0,1.567,0.85,2.724,2.27,2.724
				C183.168,474.483,184.017,473.986,184.412,473.37z"/>
			<path style="fill:#1D262D;" d="M186.932,471.744c0-2.051,1.465-3.706,3.486-3.706c2.139,0,3.398,1.67,3.398,3.794v0.279h-5.727
				c0.088,1.333,1.025,2.446,2.549,2.446c0.805,0,1.626-0.322,2.182-0.894l0.527,0.718c-0.703,0.703-1.655,1.084-2.812,1.084
				C188.44,475.465,186.932,473.956,186.932,471.744z M190.403,468.947c-1.509,0-2.256,1.274-2.314,2.358h4.643
				C192.718,470.25,192.015,468.947,190.403,468.947z"/>
			<path style="fill:#1D262D;" d="M194.607,474.351l0.571-0.791c0.469,0.542,1.362,1.011,2.329,1.011c1.084,0,1.67-0.513,1.67-1.216
				c0-1.714-4.38-0.659-4.38-3.281c0-1.098,0.952-2.036,2.636-2.036c1.201,0,2.051,0.454,2.622,1.026l-0.513,0.762
				c-0.424-0.513-1.201-0.894-2.109-0.894c-0.967,0-1.567,0.483-1.567,1.113c0,1.552,4.38,0.527,4.38,3.281
				c0,1.187-0.952,2.138-2.783,2.138C196.306,475.465,195.325,475.113,194.607,474.351z"/>
			<path style="fill:#1D262D;" d="M201.477,466.471c0-0.41,0.337-0.747,0.732-0.747c0.41,0,0.747,0.337,0.747,0.747
				c0,0.41-0.337,0.732-0.747,0.732C201.814,467.203,201.477,466.881,201.477,466.471z M201.667,475.289v-7.075h1.099v7.075H201.667
				z"/>
			<path style="fill:#1D262D;" d="M204.582,477.105l0.556-0.82c0.586,0.703,1.289,0.967,2.3,0.967c1.172,0,2.27-0.571,2.27-2.124
				v-1.011c-0.513,0.718-1.377,1.26-2.373,1.26c-1.845,0-3.149-1.377-3.149-3.662c0-2.27,1.289-3.677,3.149-3.677
				c0.952,0,1.802,0.469,2.373,1.245v-1.069h1.098v6.87c0,2.344-1.641,3.076-3.369,3.076
				C206.237,478.16,205.417,477.926,204.582,477.105z M209.709,473.253v-3.091c-0.381-0.615-1.23-1.143-2.109-1.143
				c-1.421,0-2.27,1.128-2.27,2.695c0,1.553,0.849,2.695,2.27,2.695C208.478,474.41,209.328,473.868,209.709,473.253z"/>
			<path style="fill:#1D262D;" d="M217.413,475.289v-4.629c0-1.245-0.63-1.641-1.582-1.641c-0.865,0-1.685,0.527-2.095,1.099v5.17
				h-1.099v-7.075h1.099v1.025c0.498-0.586,1.465-1.201,2.519-1.201c1.48,0,2.256,0.747,2.256,2.285v4.966H217.413z"/>
			<path style="fill:#1D262D;" d="M219.932,471.744c0-2.051,1.465-3.706,3.486-3.706c2.139,0,3.398,1.67,3.398,3.794v0.279h-5.727
				c0.088,1.333,1.025,2.446,2.549,2.446c0.806,0,1.626-0.322,2.183-0.894l0.527,0.718c-0.703,0.703-1.655,1.084-2.812,1.084
				C221.441,475.465,219.932,473.956,219.932,471.744z M223.404,468.947c-1.509,0-2.256,1.274-2.314,2.358h4.643
				C225.718,470.25,225.015,468.947,223.404,468.947z"/>
			<path style="fill:#1D262D;" d="M233.35,475.289v-1.055c-0.527,0.718-1.392,1.23-2.388,1.23c-1.846,0-3.149-1.406-3.149-3.706
				c0-2.256,1.289-3.721,3.149-3.721c0.952,0,1.817,0.469,2.388,1.245v-3.765h1.098v9.77H233.35z M233.35,473.37v-3.208
				c-0.396-0.615-1.245-1.143-2.124-1.143c-1.421,0-2.27,1.172-2.27,2.739c0,1.567,0.849,2.724,2.27,2.724
				C232.105,474.483,232.954,473.986,233.35,473.37z"/>
			<path style="fill:#1D262D;" d="M239.692,475.289v-9.77h1.098v3.765c0.572-0.776,1.421-1.245,2.388-1.245
				c1.845,0,3.149,1.465,3.149,3.721c0,2.299-1.304,3.706-3.149,3.706c-0.996,0-1.86-0.513-2.388-1.23v1.055H239.692z
				 M242.9,474.483c1.436,0,2.285-1.157,2.285-2.724c0-1.568-0.85-2.739-2.285-2.739c-0.864,0-1.728,0.527-2.109,1.143v3.208
				C241.171,473.986,242.036,474.483,242.9,474.483z"/>
			<path style="fill:#1D262D;" d="M247.528,477.061c0.161,0.073,0.425,0.117,0.601,0.117c0.483,0,0.805-0.161,1.055-0.747
				l0.469-1.069l-2.959-7.148h1.187l2.358,5.8l2.344-5.8h1.201l-3.545,8.51c-0.425,1.025-1.143,1.421-2.08,1.435
				c-0.234,0-0.601-0.044-0.805-0.103L247.528,477.061z"/>
		</g>
	</g>
</g>
</svg>
